<svg id="Layer_1" data-name="Layer 1" xmlns="http://www.w3.org/2000/svg" width="153.48" height="159.99" viewBox="0 0 153.48 159.99"><defs><style>.cls-1{fill:#d4eef5;}.cls-2{fill:#00b6d3;}.cls-11,.cls-12,.cls-13,.cls-14,.cls-15,.cls-2,.cls-3,.cls-4,.cls-5,.cls-6,.cls-7,.cls-8{fill-rule:evenodd;}.cls-3{fill:#c7ddf3;}.cls-4{fill:#e79352;}.cls-5{fill:#faae78;}.cls-6{fill:#1f407f;}.cls-7{fill:#1e2b5a;}.cls-10,.cls-8{fill:#58595b;}.cls-9{fill:#231f20;}.cls-11{fill:#5979bc;}.cls-12{fill:#fdd6bc;}.cls-13{fill:#d68546;}.cls-14{fill:#7792cb;}.cls-15{fill:#ec7823;}</style></defs><circle class="cls-1" cx="74.41" cy="85.58" r="74.41" transform="translate(-0.78 0.68) rotate(-0.52)"/><path class="cls-2" d="M114.09,148.53a74.5,74.5,0,0,1-66.35,6.53l-.08,0A139.87,139.87,0,0,1,47,141c-.06-4.72-3.56-8.78-4.74-17.73l-4.52-4.3c-3.08.69-5-1.49-6.12-3.85a24.53,24.53,0,0,1-1.5-5.7c-2.18-3.3-5-7.86-6-11.66-2-7-.64-13,8.2-17.06,2.27-2.49,4.82-3.88,10.4-6.33a25,25,0,0,1,6.89-5c2.85-2.16,4.95-3.69,5.81-5l36.55-1.68c1.91-.35,4.11-.89,6.5.35a7.54,7.54,0,0,1,5.84,1.09,11.47,11.47,0,0,1,7.75-.7c1.85-.88,4.18,0,5.16.6l5.71,4.52-1.36,23c-.4,1.63-2.62,3.56-6.41,2.35a74.17,74.17,0,0,0,.46,13.67c1.06,9.56,0,19.25-.77,28.8C114.43,140.17,114.35,144.5,114.09,148.53Z"/><path class="cls-3" d="M91.92,62.68,55.37,64.36a14.55,14.55,0,0,1-3,2.81c0,1.24,1.14,3,3.06,5.71,5.59,8,17.34,20.33,24.71,24.54,5.42-7.18,9.15-17,12.8-26.18l-.67-8.63Z"/><path class="cls-4" d="M58.12,59.46l-2.83-3.18a74.49,74.49,0,0,1-.39,9.81c-.13,1,.35,1.54.91,2.41,3.68,5.82,16.65,21,24.66,25.55,4.71-6.26,7.5-15,10.68-23l-.63-8.14-13.3-7.55-12,2.92Z"/><path class="cls-5" d="M45.74,20.55v9.08l.3,5.42.15,4.29c.32,5.69,1.39,9.75,4.51,14.46a33.85,33.85,0,0,0,4.37,5.56c1.06,1.14,1.48,2.53,2.54,3.39,1.41,1.15,3.12,1.13,4.73,1.14a14.17,14.17,0,0,0,6.82-1.48c2.36-1.45,4.65-3.58,7-4.87l3.66-10.49.46-28.4-6.72-5.72L61.08,14.56l-13.43.37Z"/><path class="cls-6" d="M46.6,43.38A24.93,24.93,0,0,0,50.44,54a34.91,34.91,0,0,0,4.37,5.64c1.07,1.15,1.57,2.71,2.63,3.57,1.41,1.15,3.38,1.13,5,1.14a15,15,0,0,0,7-1.74c2.37-1.45,4.4-3.75,6.7-5l1.82-5.2L67.31,46.12c-2.26-.45-3.47-.73-6.06.46a4,4,0,0,1-3.42.29,5.22,5.22,0,0,0-4.77.36A3.08,3.08,0,0,0,52,49.71c-.05,1.12.33,2.56-.58,1.16a45.25,45.25,0,0,1-4.77-7.49Zm16.22,6.94L62,54.12c-4.3.68-6.26-.94-7.13-3-.7-1.68.89-1.31,2.39-1.35,2.3,0,5.37,0,5.91-.29Z"/><path class="cls-6" d="M46.34,30.07l-.22,5.53c-1.58-6.35-6.43-14.9-3.26-20.24C42.65,6,57,.16,64.72,0,67.08,0,69.07.56,73,2.44c6.41,0,8.82,4.9,9.52,10.22.54,4.07,0,8.25,0,11.51-4-2.51-9.23-6.55-15.85-6.11-1.81.12-3.77.36-5.29,1.79-1.3,1.21-1.21,1.59-2.55.34C56,17.6,50.16,18.38,47.93,21.45c-.85,1.17-.68,2.57-.58,4.51C47.46,28.09,47.21,28.15,46.34,30.07Z"/><path class="cls-7" d="M46.34,30.07l-.22,5.53c-1.57-6.33-6.41-14.85-3.29-20.2.84,3.59,2.41,6.37,4.5,7.56a15.9,15.9,0,0,0,0,3C47.46,28.09,47.21,28.15,46.34,30.07Z"/><path class="cls-6" d="M47.28,33c.22.16,1-.07,2.2-.24,3.06-.44,3.43,0,6.07.49a2.72,2.72,0,0,0,1.21.06c.27-.1.33-.55-.34-1a6.51,6.51,0,0,0-3.18-1.19C51.57,30.88,47.46,30.6,47.28,33Z"/><polygon class="cls-8" points="66.7 40.67 66.7 28.49 63.5 31.63 63.5 37.53 66.7 40.67"/><rect class="cls-9" x="66.4" y="19.69" width="19.09" height="34.61" rx="0.78"/><rect class="cls-10" x="63.25" y="21.39" width="2.31" height="3.71" rx="0.25"/><rect class="cls-9" x="64.6" y="20.48" width="2.31" height="5.52" rx="0.25"/><rect class="cls-10" x="66.4" y="19.69" width="19.09" height="7.09" rx="0.78"/><rect class="cls-9" x="64.6" y="47.24" width="2.31" height="5.52" rx="0.25"/><rect class="cls-9" x="64.6" y="42.08" width="2.31" height="2.79" rx="0.25"/><rect class="cls-10" x="66.4" y="40.9" width="19.09" height="13.41" rx="0.78"/><path class="cls-11" d="M115.84,94.05c3.35.76,5.31-1,5.68-2.55l.06-1-9.33-6,2.45,7.79Z"/><path class="cls-11" d="M30.47,111.34a16.31,16.31,0,0,0,1.12,3.74c1.08,2.36,3,4.54,6.12,3.85l.08.08-1.92-7.73-3.16-3.78Z"/><path class="cls-5" d="M31.76,107.54l-.13,2c4.36,11.49,14,19.83,28.12,25.55a52.83,52.83,0,0,0,8.13,2.33,76.32,76.32,0,0,0,8.05,3.73c3.85,1.39,13.89,2.14,16.06-1.55a5.64,5.64,0,0,0,.58-3.33,26,26,0,0,1,.79-8.44,111,111,0,0,0,2.81-13.21,83.17,83.17,0,0,0,.49-12.1L95.39,77.93c-.19-2.72-.37-5.44-.56-8.16a9.71,9.71,0,0,0-1.9-7.58,20.82,20.82,0,0,0-3.52-8.51c.65-.66.33-2.58.09-3.37,1-.11.63-1.77-.1-2.66V46.49a11.8,11.8,0,0,0-.79-5c-.56-1.39-2.3-2.94-3.15-1.13v3.87a12.81,12.81,0,0,0-5.81.07,2.19,2.19,0,0,0,0-2.2c-1.36-.17-3.36-.65-5-.77a3.79,3.79,0,0,0-2.9.73c-1.65,1.34-3.31,3-5,4a2.4,2.4,0,0,0-.47,3,27,27,0,0,0,3.06,5.58,10.62,10.62,0,0,0-4.3.08,4.92,4.92,0,0,0-1.32-2.39,2.27,2.27,0,0,0,.82-.81V47.66c-1-.89-1.92-.39-2.5.7l-1.53,2.87A3.7,3.7,0,0,0,60.48,54c.66,1.55,1.3,3.1,1.82,4.65a1.69,1.69,0,0,0,1.79,1.21,87,87,0,0,1,8.85.52c2.22,2.24,7.93,7.77,9.24,10.19,1.5,2.75,2,4.7,1.61,6.94-1.34,6.42-2.63,14.52-4.4,20.66-1.37,4.75-5.73,12-7.13,15.34A90.88,90.88,0,0,0,53.41,97.89H47.66L34.6,105l-2.84,2.52ZM77.13,45.48c-1.43,1.08-1.22,4.2-1.19,5.8a4.28,4.28,0,0,0-1.88.49,19.43,19.43,0,0,0-2.33-4.45A7.76,7.76,0,0,0,75,45.07,7.21,7.21,0,0,0,77.13,45.48Z"/><path class="cls-12" d="M63,47.33a2.34,2.34,0,0,0-1,1l-.58,1.08a.88.88,0,0,0,1.07-.19,3.62,3.62,0,0,0,.59-1.33A1,1,0,0,0,63,47.33Z"/><path class="cls-13" d="M72.26,113.55l-.17-.19a34.86,34.86,0,0,1-1.52,3.14,25.93,25.93,0,0,0-2.67,6.71.12.12,0,1,0,.23.05,25.61,25.61,0,0,1,2.65-6.65C71.31,115.6,71.82,114.61,72.26,113.55Z"/><path class="cls-4" d="M92.91,62a21.15,21.15,0,0,0-3.46-8.25,2.2,2.2,0,0,1-2.9-1,4.58,4.58,0,0,1-.41-2.43L85.5,50A21,21,0,0,1,85,52.55,15.39,15.39,0,0,1,87.57,57,23.37,23.37,0,0,1,92.91,62Z"/><path class="cls-8" d="M78.19,42.37a7.8,7.8,0,1,0-7.79-7.79A7.81,7.81,0,0,0,78.19,42.37Z"/><path class="cls-14" d="M78.19,39.94a5.37,5.37,0,1,0-5.37-5.36A5.38,5.38,0,0,0,78.19,39.94Z"/><path class="cls-15" d="M75.85,47.89l4.39.48a14.38,14.38,0,0,0-.25,2l-4.28-.48C75.15,49.75,75.27,47.79,75.85,47.89Z"/><path class="cls-3" d="M30,109.28c-.08.63.52,4.55,1.36,5.32a8.65,8.65,0,0,1,2.55-7.16c3-3.17,11.63-8,16-9a11.36,11.36,0,0,1,4.23-.07A5.24,5.24,0,0,0,52,95.75a28,28,0,0,0-10.2,3C37,101.06,32.27,104.58,30,109.28Z"/><path class="cls-5" d="M111.75,84.31,113,89.12c5.53,3.67,21.72,5.56,28.52,5.27,5.41.29,11.52-6.41,11.89-10.66a6.32,6.32,0,0,0-1.21-4.39C145.39,67,134.9,54.77,122.32,46.71A43.67,43.67,0,0,1,112,37.52a24.34,24.34,0,0,0-6-5.52,15.58,15.58,0,0,1-3.63-4.37c-1.8-3.35-3.78-6.64-5.6-10-.51-.94-1-2-2.14-2.25-1.48-2.56-4.07-1.64-6-.29l-3.88-2.3a4.78,4.78,0,0,0-4.08-.21L77.3,14A6.15,6.15,0,0,0,75,15.64a9.69,9.69,0,0,1-1.6,1.72c-.85.74-1.17,1.86.12,2.33h1.85a7.8,7.8,0,0,0,2.79-2.28,6.55,6.55,0,0,0,3.65-.64,2.83,2.83,0,0,0,1,1.17,27.83,27.83,0,0,0-3.38,2.22c-1.74,1.32,0,3.4,1.11,4.33.78,2,3.56,4.51,4.94,5.74A12.92,12.92,0,0,0,88.64,35a12.82,12.82,0,0,0,7,3.82c4,1.85,8.88,8.7,12.34,13.27,4.53,6,8.64,12.94,12.74,19.27l-3.92.68-3.7,4Z"/><path class="cls-13" d="M88.56,15.1,88.32,15c-.93.42-1.87.86-2.8,1.32s-2,1-3,1.53l.2.14-.23.13h0c1-.55,2-1.08,3.07-1.58s2-.94,2.94-1.38Zm-8.31,9.18a4.42,4.42,0,0,1,.3-2.08,5.42,5.42,0,0,1,1.89-2.39,27.93,27.93,0,0,1,4.41-2.38L88,16.89a.11.11,0,0,1,.15.05.13.13,0,0,1,0,.16L87,17.64A27.8,27.8,0,0,0,82.58,20a5.16,5.16,0,0,0-1.82,2.28,4.31,4.31,0,0,0-.24,2.29l0-.08a2.25,2.25,0,0,1-.24-.21Zm5.12,5.89.06.06.14.39a2.52,2.52,0,0,0,.5.22,3.08,3.08,0,0,0,1.08.13h0c.59-.07,1.28-.11,2-.15a11.64,11.64,0,0,0,3.45-.5.12.12,0,0,0,0-.15.13.13,0,0,0-.16-.06,11.49,11.49,0,0,1-3.35.48c-.7,0-1.39.08-2,.15a2.84,2.84,0,0,1-1-.12,1.85,1.85,0,0,1-.75-.43Z"/><path class="cls-13" d="M120.65,71.29v0h0v0Zm.06.11-.24,0a81.51,81.51,0,0,0,5.25,8.92,21.62,21.62,0,0,0,4.34,4.85.11.11,0,1,0,.14-.18,21.5,21.5,0,0,1-4.29-4.81A78.89,78.89,0,0,1,120.71,71.4Z"/><path class="cls-3" d="M115.09,94a7.44,7.44,0,0,0,3.46.09,3.4,3.4,0,0,1-2.45-1.46c-2.42-3-4-9.61-3.16-13,1.09-4.32,3.79-6.78,7.8-8.2l-1.08-1.65C108.87,74.08,108.83,85.17,115.09,94Z"/><path class="cls-15" d="M105,49.09c.11,1.34,1.23,1.29,1.26.81.24-4.11,2.88-9.31,6.62-11.74A.92.92,0,0,0,113,36.7c-.43-.46-1-.4-1.58,0C107.88,38.9,104.6,44.89,105,49.09Z"/><path class="cls-12" d="M74,16.74a7.81,7.81,0,0,1-.67.62,2.06,2.06,0,0,0-.73,1.16,1.75,1.75,0,0,0,1.89-1.17A1,1,0,0,0,74,16.74Z"/><path class="cls-13" d="M61.37,49.7l-.74,1.6a3.44,3.44,0,0,0-.34,1.48,4,4,0,0,0,.28,1.49h-.24a4,4,0,0,1-.27-1.49,3.57,3.57,0,0,1,.36-1.58l.69-1.49Z"/><path class="cls-4" d="M91.62,24.65,91.51,24a8.38,8.38,0,0,1-2.61-.56l-.72.16a3.61,3.61,0,0,1,.72,1.52,11.28,11.28,0,0,1,2.64-.44Z"/><path class="cls-13" d="M90.18,17a.13.13,0,0,1,.16,0,.12.12,0,0,1,0,.16l-5.22,2.91a2.84,2.84,0,0,0-1.4,1.36,2.69,2.69,0,0,0,.18,2l2.3,4.16a1.35,1.35,0,0,0,.7.6,2.46,2.46,0,0,0,1.15.09l.8-.13A15.53,15.53,0,0,0,92,27.52l-.48-2.76a6,6,0,0,0-1.8.27l-.8.18a.12.12,0,0,1-.14-.1,3.41,3.41,0,0,0-.26-.76,3.33,3.33,0,0,0-.44-.71.11.11,0,0,1,0-.16l0,0,.72-.16s.05,0,.07,0a7.28,7.28,0,0,0,1.29.39,9.42,9.42,0,0,0,1.27.17.11.11,0,0,1,.11.09l1.28,7.29a8.51,8.51,0,0,0,1.74,4,5.76,5.76,0,0,0,3.2,2,.11.11,0,0,1,0,.22,6,6,0,0,1-3.33-2,8.88,8.88,0,0,1-1.79-4.08l-.62-3.52a17.33,17.33,0,0,1-3.21.71l-.8.14a2.59,2.59,0,0,1-1.27-.11,1.47,1.47,0,0,1-.82-.7l-2.32-4.18a2.93,2.93,0,0,1-.18-2.19A3.05,3.05,0,0,1,85,20L90.18,17Zm-.51,7.76a6.75,6.75,0,0,1,1.82-.27l-.08-.45a10.3,10.3,0,0,1-1.21-.16,8,8,0,0,1-1.3-.39l-.51.12a3,3,0,0,1,.35.6A3.75,3.75,0,0,1,89,25Z"/><path class="cls-13" d="M93,62.3l-.08-.11c0-.14,0-.29-.05-.44a19.89,19.89,0,0,0-2.29-2.47A27.33,27.33,0,0,0,87.66,57a13.54,13.54,0,0,0-1.15-2.42,19.08,19.08,0,0,0-1.42-2,21.7,21.7,0,0,0,.5-2.34l.43.24a4.23,4.23,0,0,0,.08,1.36,4.88,4.88,0,0,0,.34,1h0a2.34,2.34,0,0,0,1.75,1.25,2.18,2.18,0,0,0,1.23-.17h0l.08,0-.11-.18.06-.07-.14.09h0a1.85,1.85,0,0,1-1.08.15A2.05,2.05,0,0,1,87,53.23a1.94,1.94,0,0,1-.36-.51h0a5.08,5.08,0,0,1-.33-1,4.39,4.39,0,0,1-.06-1.38.13.13,0,0,0-.06-.11l-.64-.35a.12.12,0,0,0-.16,0v0a23,23,0,0,1-.54,2.54.09.09,0,0,0,0,.1,19,19,0,0,1,1.43,2,13.44,13.44,0,0,1,1.15,2.41.09.09,0,0,0,0,.06,26.37,26.37,0,0,1,2.93,2.32A19.36,19.36,0,0,1,93,62.3ZM89.52,50.38s0,0,0,0a6.32,6.32,0,0,0-1.25-2.68,4.67,4.67,0,0,0-2.67-1.24,12.37,12.37,0,0,0-1.44-.19,9.25,9.25,0,0,0-1.25,0,2.74,2.74,0,0,0-1.47.61,3.28,3.28,0,0,0-1,1.38,5.59,5.59,0,0,0-.25,1.61c0,.25,0,.49-.07.72-.13,1-.3,2-.47,3l-.09.59a.13.13,0,0,1-.14.09.11.11,0,0,1-.09-.13l.1-.59c.16-1,.33-2,.46-3,0-.22,0-.46.06-.71a6.15,6.15,0,0,1,.28-1.67,3.6,3.6,0,0,1,1.09-1.49A2.94,2.94,0,0,1,82.88,46a9.79,9.79,0,0,1,1.29,0,13,13,0,0,1,1.47.19,4.86,4.86,0,0,1,2.79,1.31,6.48,6.48,0,0,1,1.29,2.74.64.64,0,0,1-.22.06l0,.07Zm-.12-2.73v-.36l-.15-.17A11.2,11.2,0,0,0,85.46,44v.22l-.15,0h0a11,11,0,0,1,3.76,3.11l.33.38ZM69.21,54.43l.17.24-.31,0a26.29,26.29,0,0,1,2.09,3.46,12.15,12.15,0,0,0,1.4,2.27l.38.06A9.72,9.72,0,0,1,71.37,58a24.9,24.9,0,0,0-2.16-3.56Zm6.06,4.67a.11.11,0,0,1-.06.15.11.11,0,0,1-.15,0,5.05,5.05,0,0,1-.4-1.15,2.34,2.34,0,0,1,0-.95c.11-.63.26-1.22.41-1.81a16.94,16.94,0,0,0,.63-4h.23a17,17,0,0,1-.64,4.07c-.14.58-.29,1.17-.4,1.8h0a2,2,0,0,0,0,.84A4.62,4.62,0,0,0,75.27,59.1Z"/></svg>