<?xml version="1.0" encoding="UTF-8"?>
<svg id="Travail" xmlns="http://www.w3.org/2000/svg" viewBox="0 0 547.9 210.26">
  <defs>
    <style>
      .cls-1 {
        fill: #fff;
      }

      .cls-2 {
        fill: none;
        stroke: #fff;
        stroke-miterlimit: 10;
        stroke-width: 8px;
      }
    </style>
  </defs>
  <path class="cls-1" d="m327.98,23.35v57.95h-24.18V0h31.51c13.82,0,24.64,3.14,32.46,9.41,9.29,7.51,13.94,17.69,13.94,30.56s-3.97,22.36-11.91,30.14c-7.94,7.78-18.17,11.67-30.67,11.67-1.47,0-3.87-.08-7.21-.24v-23.88h3.87c14.1,0,21.15-5.9,21.15-17.69,0-11.08-6.93-16.62-20.79-16.62h-8.16Z"/>
  <path class="cls-1" d="m508.61,23.35v57.95h-24.18V23.35h-18.52V0h61.17v23.35h-18.47Z"/>
  <path class="cls-1" d="m4.06,177.69l12.9-2.93c5.19,15.57,16.44,23.36,33.74,23.36,9.04,0,15.86-1.92,20.43-5.76,4.58-3.84,6.87-8.98,6.87-15.42,0-4.87-1.74-8.79-5.23-11.76-3.49-2.97-7.52-5.01-12.09-6.13l-22.87-5.64c-5.92-1.51-10.76-3.34-14.53-5.49-3.77-2.15-6.97-5.47-9.59-9.94-2.62-4.47-3.94-9.59-3.94-15.35,0-9.56,3.6-17.17,10.8-22.85,7.2-5.67,16.44-8.51,27.72-8.51,20.77,0,34.42,9.41,40.95,28.22l-12.98,3.85c-1.51-6.7-5.05-11.76-10.63-15.2-5.58-3.43-11.53-5.15-17.84-5.15s-11.82,1.65-16.71,4.96c-4.89,3.31-7.33,7.99-7.33,14.05,0,8.47,6.19,14.19,18.57,17.16l21.37,5.01c19.54,4.69,29.31,15.21,29.31,31.57,0,9.88-3.67,18.1-11.01,24.66-7.34,6.56-17.68,9.84-31.03,9.84-23.67,0-39.3-10.86-46.89-32.57Z"/>
  <path class="cls-1" d="m147.21,207.92h-14.32v-101.74h-32.74v-12.56h79.88v12.56h-32.83v101.74Z"/>
  <path class="cls-1" d="m262.98,93.62h11.89v74.66c0,14.97-3.67,25.71-11.01,32.22-7.34,6.51-16.96,9.76-28.85,9.76-13.23,0-23.03-3.35-29.39-10.06-6.36-6.7-9.55-17.35-9.55-31.93v-74.66h14.32v74.67c0,8.88,1.03,15.14,3.1,18.77,2.07,3.63,5.19,6.31,9.38,8.05,4.19,1.73,8.57,2.6,13.15,2.6,8.82,0,15.52-2.32,20.1-6.95,4.57-4.64,6.87-12.12,6.87-22.46v-74.67Z"/>
  <path class="cls-1" d="m303.63,207.92v-114.3h38.35c16.13,0,28.69,5.5,37.68,16.5,8.99,11,13.48,24.45,13.48,40.36s-4.38,29.74-13.15,40.82c-8.76,11.08-19.88,16.62-33.33,16.62h-43.04Zm14.32-12.14h23.19c12.28,0,21.6-4.24,27.97-12.73,6.36-8.48,9.54-19.68,9.54-33.58,0-11.28-3.03-21.41-9.08-30.4-6.06-8.99-15.53-13.48-28.43-13.48h-23.19v90.18Z"/>
  <path class="cls-1" d="m430.79,207.92h-14.32v-114.3h14.32v114.3Z"/>
  <path class="cls-1" d="m500.67,210.26c-14.68,0-26.12-5.71-34.33-17.14-8.21-11.42-12.31-25.43-12.31-42.02s4.3-31.62,12.89-42.9c8.6-11.28,19.99-16.93,34.16-16.93s25.46,5.54,34,16.63c8.54,11.09,12.81,25.07,12.81,41.94s-4.14,30.32-12.43,42.36c-8.29,12.04-19.89,18.06-34.79,18.06Zm.33-11.64c9.99,0,17.81-4.55,23.45-13.66,5.64-9.11,8.46-20.84,8.46-35.2s-2.92-26.23-8.75-34.45c-5.83-8.21-13.58-12.32-23.24-12.32s-17.53,4.44-23.28,13.32c-5.75,8.88-8.62,20.51-8.62,34.86s2.9,25.44,8.71,34.24c5.81,8.8,13.57,13.2,23.28,13.2Z"/>
  <rect class="cls-2" x="400.13" y="34.3" width="47" height="47"/>
  <rect class="cls-2" x="4.06" y="53.71" width="291.18" height="23.5"/>
</svg>