<svg id="Calque_1" data-name="Calque 1" xmlns="http://www.w3.org/2000/svg" width="400" height="100" viewBox="0 0 400 100"><path d="M5.63,26.32H24.38c13.77,0,22.77,9.07,22.77,23,0,13.78-8.73,24.23-23.2,24.23H5.63Zm10.23,39h7.66c9.06,0,13.07-6.74,13.07-16,0-7.72-3.75-14.81-13-14.81H15.86Z"/><path d="M99.62,49.8c0,13.15-7.89,24.48-23.25,24.48-14.84,0-22.6-10.78-22.6-24.32,0-13.76,8.58-24.33,23.26-24.33C90.86,25.63,99.62,35.32,99.62,49.8Zm-35.29,0C64.33,59,68.38,66,76.76,66c9.09,0,12.31-7.61,12.31-16,0-8.94-3.67-16-12.48-16C68.05,34,64.33,40.55,64.33,49.75Z"/><path d="M117.05,34.7H102.69V26.32h38.9V34.7H127.28V73.6H117.05Z"/><path d="M145.86,70A4,4,0,0,1,150,65.71,4.33,4.33,0,1,1,145.86,70Z"/><path d="M163.55,60.7c1.44,6.38,5.69,10.15,13.58,10.15,8.78,0,12.14-4.39,12.14-9.6,0-5.42-2.4-8.77-13-11.38-10.15-2.54-14.54-5.83-14.54-12.76,0-6.3,4.59-12.2,14.88-12.2,10.56,0,15,6.44,15.63,12.27h-3.84c-1.09-5.14-4.45-8.84-12-8.84-6.92,0-10.69,3.22-10.69,8.57s3.15,7.34,12,9.53c13.51,3.36,15.49,8.78,15.49,14.54,0,7.06-5.14,13.16-16.25,13.16-12,0-16.39-7-17.28-13.44Z"/><path d="M213.27,29H197.15V25.59h36.07V29H217V73.6h-3.77Z"/><path d="M244.74,25.59V54.67c0,12.75,7.2,16,14,16,8,0,14-3.36,14-16V25.59h3.77V54.46c0,15-7.95,19.68-17.89,19.68-9.47,0-17.7-5.14-17.7-19.06V25.59Z"/><path d="M289.93,25.59h15.91c13.17,0,22.29,9.19,22.29,23.59S319.21,73.6,305.77,73.6H289.93Zm3.71,44.58h11.59c12.68,0,18.92-8.92,18.92-20.78,0-10.56-5.62-20.37-18.92-20.37H293.64Z"/><path d="M342.39,25.59v48h-3.7v-48Z"/><path d="M396.16,49.25c0,13.1-7,25-21.81,25-13.51,0-21.39-10.9-21.39-24.69,0-13.57,7.61-24.68,21.87-24.68C388,24.91,396.16,35.26,396.16,49.25Zm-39.23.14c0,11,6.11,21.46,17.63,21.46,12.41,0,17.62-10.15,17.62-21.53,0-11.18-5.9-21-17.49-21C362.35,28.34,356.93,38.55,356.93,49.39Z"/></svg>