<svg id="Capa_1" enable-background="new 0 0 512 512" height="512" viewBox="0 0 512 512" width="512" xmlns="http://www.w3.org/2000/svg"><g><ellipse cx="256" cy="483.933" fill="#59d5ff" rx="28.066" ry="28.067" transform="matrix(.987 -.16 .16 .987 -74.212 47.255)"/><path d="m179.032 402.845c0 42.508 34.46 76.968 76.968 76.968s76.968-34.46 76.968-76.968z" fill="#5972a4"/><path d="m186.414 78.001c0-43.079-34.203-78.001-84.978-78.001s-84.978 34.922-84.978 78.001c0 44.456 39.865 67.534 84.755 67.608 3.113.005 6.012 1.554 7.784 4.114 7.257 10.481 17.497 16.589 30.424 18.683 8.422 1.365 15.709-6.086 14.114-14.467-.762-4.004-.986-9.243-1.052-14.619-.041-3.336 1.673-6.423 4.487-8.215 18.032-11.484 29.444-29.512 29.444-53.104z" fill="#38d39a"/><path d="m173.27 116.67c-152.453 14.767-122.026-82.555-98.566-113.153-35.681 9.886-58.245 39.494-58.245 74.483 0 44.457 39.865 67.534 84.755 67.608 3.113.005 6.012 1.555 7.784 4.114 7.257 10.481 17.497 16.589 30.424 18.683 8.422 1.365 15.709-6.086 14.114-14.467-.762-4.004-.986-9.243-1.052-14.619-.041-3.336 1.673-6.423 4.487-8.215 6.314-4.022 11.814-8.849 16.299-14.434z" fill="#00c072"/><path d="m124.336 79.604h-45.8c-4.142 0-7.5-3.358-7.5-7.5s3.358-7.5 7.5-7.5h45.8c4.142 0 7.5 3.358 7.5 7.5s-3.358 7.5-7.5 7.5z" fill="#5972a4"/><path d="m256 72.104c-15.531 0-30.514 2.348-44.615 6.703-101.739 65.328-79.818 257.425 81.014 309.087h36.204c0-52.314 78.391-82.913 78.391-164.797-.001-83.391-67.603-150.993-150.994-150.993z" fill="#f7e969"/><path d="m297.772 77.962c0 .013-.001.026-.001.039 0 28.341 11.793 52.913 33.452 70.234-.029.203-.057.368-.082.501-5.204 27.328 18.409 51.581 45.887 47.126 9.349-1.515 17.936-4.524 25.603-8.899-12.887-52.468-53.19-94.157-104.859-109.001z" fill="#f5c956"/><path d="m211.385 78.807c-61.611 19.029-106.378 76.43-106.378 144.29 0 81.884 78.391 112.482 78.391 164.797h109.001c-154.174-83.833-124.021-254.338-81.014-309.087z" fill="#f5c956"/><path d="m332.301 366.848h-92.189c-30.509 12.709-28.036 46.506 16.405 55.858h84.27c10.561 0 19.122-8.561 19.122-19.122v-9.128c-.001-15.248-12.361-27.608-27.608-27.608z" fill="#eeecff"/><g><g><ellipse cx="173.951" cy="246.733" fill="#ffa1ac" rx="30.274" ry="24.109"/><ellipse cx="338.049" cy="246.733" fill="#ffa1ac" rx="30.274" ry="24.109"/><path d="m280.409 228.21c0-15.085-10.928-16.502-24.409-16.502-13.48 0-24.409 1.417-24.409 16.502s10.928 27.313 24.409 27.313c13.48 0 24.409-12.229 24.409-27.313z" fill="#425460"/></g><g fill="#425460"><path d="m179.013 225.45c-4.142 0-7.5-3.358-7.5-7.5v-12.362c0-4.142 3.358-7.5 7.5-7.5s7.5 3.358 7.5 7.5v12.362c0 4.142-3.358 7.5-7.5 7.5z"/><path d="m332.988 225.45c-4.142 0-7.5-3.358-7.5-7.5v-12.362c0-4.142 3.358-7.5 7.5-7.5s7.5 3.358 7.5 7.5v12.362c0 4.142-3.358 7.5-7.5 7.5z"/></g></g><path d="m240.112 366.848h-60.413c-15.247 0-27.607 12.36-27.607 27.608v9.128c0 10.561 8.561 19.122 19.122 19.122h85.303c-23.281-10.851-29.791-40.373-16.405-55.858z" fill="#d3d3ff"/><path d="m483.528 115.253c7.567-10.007 12.014-22.435 12.014-37.252 0-43.079-34.203-78.001-84.978-78.001-13.538 0-25.883 2.503-36.731 6.961-42.949 33.304-30.298 167.919 109.695 108.292z" fill="#a3e6ff"/><path d="m372.578 168.405c12.926-2.095 23.167-8.202 30.424-18.683 1.772-2.559 4.672-4.109 7.784-4.114 29.929-.049 57.606-10.338 72.742-30.356-137.594 21.487-127.772-80.1-109.695-108.292-29.836 12.262-48.247 39.447-48.247 71.04 0 23.592 11.412 41.62 29.444 53.104 2.814 1.792 4.528 4.879 4.487 8.215-.066 5.377-.29 10.615-1.052 14.619-1.596 8.381 5.692 15.832 14.113 14.467z" fill="#59d5ff"/><path d="m433.464 79.604h-45.8c-4.142 0-7.5-3.358-7.5-7.5s3.358-7.5 7.5-7.5h45.8c4.142 0 7.5 3.358 7.5 7.5s-3.358 7.5-7.5 7.5z" fill="#5972a4"/></g></svg>