<svg id="Capa_1" enable-background="new 0 0 512 512" height="512" viewBox="0 0 512 512" width="512" xmlns="http://www.w3.org/2000/svg" xmlns:xlink="http://www.w3.org/1999/xlink"><radialGradient id="SVGID_1_" cx="431.157" cy="668.521" gradientTransform="matrix(.931 0 0 .114 -148.108 308.033)" gradientUnits="userSpaceOnUse" r="211.111"><stop offset="0" stop-color="#b4d2e2"/><stop offset=".5119" stop-color="#d8e8f0"/><stop offset=".5248" stop-color="#d9e9f0"/><stop offset=".9755" stop-color="#fff"/></radialGradient><radialGradient id="SVGID_00000016777251425619542870000007593668370598395051_" cx="320.541" cy="197.444" gradientUnits="userSpaceOnUse" r="98.748"><stop offset="0" stop-color="#dcfcee"/><stop offset=".5465" stop-color="#e5fbd8"/><stop offset="1" stop-color="#c9f6b0"/></radialGradient><radialGradient id="SVGID_00000008128425473452788020000000265995205743752869_" cx="541.279" cy="80.432" gradientTransform="matrix(0 1 -.486 0 580.382 -460.848)" gradientUnits="userSpaceOnUse" r="646.658"><stop offset="0" stop-color="#9be69d"/><stop offset=".5038" stop-color="#6fd7a3"/><stop offset=".9755" stop-color="#008b81"/></radialGradient><radialGradient id="SVGID_00000094597449690020898760000004511935060279355527_" cx="181.531" cy="116.889" gradientUnits="userSpaceOnUse" r="122.018"><stop offset="0" stop-color="#ffe3e0"/><stop offset=".4303" stop-color="#ffc5c9"/><stop offset="1" stop-color="#ff9aa2"/></radialGradient><radialGradient id="SVGID_00000098193981422824557160000018157763935010002316_" cx="338.362" cy="236.652" gradientUnits="userSpaceOnUse" r="244.85"><stop offset="0" stop-color="#ff6470"/><stop offset=".5038" stop-color="#ff4555"/><stop offset=".6292" stop-color="#ef3a4b"/><stop offset=".9424" stop-color="#c92136"/></radialGradient><radialGradient id="SVGID_00000137117548295430414070000009551127559924185754_" cx="48.937" cy="335.741" gradientTransform="matrix(1 0 0 .551 0 150.931)" gradientUnits="userSpaceOnUse" r="80.294"><stop offset="0" stop-color="#68e7fd"/><stop offset=".1693" stop-color="#42e3fd"/><stop offset=".4303" stop-color="#00dcfc"/><stop offset="1" stop-color="#00c1fc"/></radialGradient><radialGradient id="SVGID_00000063626100333968337420000002039545510677497487_" cx="45.729" cy="212.057" gradientUnits="userSpaceOnUse" r="117.799"><stop offset="0" stop-color="#eaf9fa"/><stop offset=".4303" stop-color="#d6f6fd"/><stop offset="1" stop-color="#68e7fd"/></radialGradient><radialGradient id="SVGID_00000070815269797031578020000010164350902506570391_" cx="183.052" cy="244.391" gradientUnits="userSpaceOnUse" r="150.118"><stop offset="0" stop-color="#00d1fd"/><stop offset=".5038" stop-color="#00c1fc"/><stop offset=".9755" stop-color="#0094ff"/></radialGradient><g><path d="m256 409.6c113.107 0 204.798-11.462 204.798-25.6h-409.596c0 14.138 91.691 25.6 204.798 25.6z" fill="url(#SVGID_1_)"/><path d="m307.2 384h25.6l12.8-89.6-12.8-89.6h-25.6z" fill="url(#SVGID_00000016777251425619542870000007593668370598395051_)"/><path d="m332.8 204.8h179.2v179.2h-179.2z" fill="url(#SVGID_00000008128425473452788020000000265995205743752869_)"/><path d="m179.2 102.4-140.8 281.6h76.8l102.4-166.4 38.4-115.2z" fill="url(#SVGID_00000094597449690020898760000004511935060279355527_)"/><path d="m396.8 384h-281.6l140.8-281.6z" fill="url(#SVGID_00000098193981422824557160000018157763935010002316_)"/><path d="m115.2 320-98.551 26.434c16.25 22.742 42.869 37.566 72.951 37.566h51.2c-14.594 0-19.614-42.02-25.6-64z" fill="url(#SVGID_00000137117548295430414070000009551127559924185754_)"/><path d="m140.8 204.8h-51.2c-49.485 0-89.6 40.115-89.6 89.6 0 19.403 6.168 37.365 16.649 52.034h93.281c-14.311-52.548-4.021-141.634 30.87-141.634z" fill="url(#SVGID_00000063626100333968337420000002039545510677497487_)"/><circle cx="140.8" cy="294.4" fill="url(#SVGID_00000070815269797031578020000010164350902506570391_)" r="89.6"/></g></svg>