<svg id="Capa_1" enable-background="new 0 0 512 512" height="512" viewBox="0 0 512 512" width="512" xmlns="http://www.w3.org/2000/svg"><g><path d="m359.885 316.328c33.289 21.413 52.604 36.584 66.977 50.957 6.201 6.201 11.603 12.555 16.679 19.464 14.108 19.203 11.924 45.881-4.926 62.731l-48.279 48.278c-16.85 16.85-43.527 19.034-62.73 4.926-6.909-5.076-13.263-10.478-19.464-16.679-14.374-14.374-29.544-33.689-50.957-66.977z" fill="#38d39a"/><path d="m257.186 419.027c17.407 27.061 30.689 44.887 42.77 58.331 4.565-5.668 8.159-12.225 10.47-19.468 30.485-6.776 59.806-22.945 83.236-46.376 11.674-11.674 24.954-25.33 37.509-39.755-1.396-1.504-2.829-2.994-4.309-4.475-14.374-14.374-33.689-29.544-66.977-50.957z" fill="#00c072"/><path d="m443.105 258.593c-12.013-12.69-32.044-12.898-44.319-.623 12.071-12.071 12.071-31.642 0-43.713-12.071-12.071-31.642-12.071-43.713 0 12.071-12.071 12.071-31.642 0-43.713-12.071-12.071-31.642-12.071-43.713 0 12.275-12.275 12.068-32.306-.623-44.319-27.486-27.486-87.336 26.324-131.688 70.676-27.534 27.534-46.138 67.783-39.981 110.725 1.27 8.857-2.565 17.684-9.931 22.764-20.879 14.399-34.798 25.882-45.811 36.895-6.233 6.233-11.658 12.62-16.757 19.57-14.066 19.174-11.812 45.808 5.003 62.623 14.906 14.906 33.374 33.374 48.28 48.281 16.815 16.815 43.449 19.069 62.623 5.003 6.95-5.098 13.337-10.524 19.571-16.757 11.013-11.013 22.496-24.932 36.895-45.811 5.08-7.366 13.907-11.201 22.764-9.931 9.203-9.872 35.023-14.362 58.332-6.313 19.998-7.243 37.948-19.223 52.393-33.669 44.351-44.352 98.161-104.202 70.675-131.688z" fill="#f7e969"/><path d="m221.662 157.048c-14.737 12.516-29.366 26.606-42.614 39.853-27.534 27.534-46.138 67.783-39.981 110.725 1.27 8.857-2.565 17.684-9.931 22.764-17.927 12.363-30.715 22.574-40.946 32.186 14.217 20.127 35.617 45.715 54.234 64.332 18.617 18.616 44.204 40.015 64.329 54.23 9.612-10.231 19.823-23.019 32.186-40.945 5.079-7.366 13.907-11.201 22.764-9.931 20.413 2.927 40.213.25 58.332-6.313-84.272-77.139-109.428-194.952-98.373-266.901z" fill="#f5c956"/><path d="m267.923 413.61c-11.87-6.708-42.084-30.687-61.8-50.403-5.522-5.522-11.378-11.868-17.096-18.404-21.898 7.402-25.089 56.218 13.77 95.68 13.565 10.925 26.576 20.324 35.578 25.412 14.499 8.195 32.794 3.004 40.917-11.369 8.16-14.437 3.07-32.756-11.369-40.916z" fill="#5972a4"/><path d="m189.027 344.804c-14.697-16.798-28.478-34.851-33.308-43.398-8.16-14.438-26.482-19.528-40.917-11.368-14.438 8.16-19.527 26.479-11.367 40.917 10.213 18.07 37.791 52.287 60.221 74.719 11.257 11.256 25.48 23.806 39.142 34.809-22.769-26.971-22.854-73.455-13.771-95.679z" fill="#3b5a9a"/><g fill="#f5c956"><path d="m337.905 231.424c-2.929-2.929-2.929-7.678.001-10.606l11.864-11.864c2.929-2.929 7.678-2.929 10.606 0 2.929 2.929 2.929 7.678-.001 10.606l-11.864 11.864c-2.927 2.928-7.676 2.93-10.606 0z"/><path d="m381.618 275.137c-2.929-2.929-2.929-7.678.001-10.606l11.864-11.864c2.929-2.93 7.678-2.929 10.606 0 2.929 2.929 2.929 7.678-.001 10.606l-11.864 11.864c-2.927 2.928-7.676 2.93-10.606 0z"/><path d="m293.59 188.313c-2.929-2.929-2.929-7.678.001-10.606l11.864-11.864c2.929-2.93 7.678-2.929 10.606 0 2.929 2.929 2.929 7.678-.001 10.606l-11.864 11.864c-2.927 2.928-7.676 2.93-10.606 0z"/></g><g><path d="m202.982 127.162c11.598-11.597 31.987-12.658 50.638 5.993s17.591 39.04 5.993 50.638c-10.863 10.863-28.474 10.863-39.337 0l-17.294-17.294c-10.862-10.863-10.862-28.474 0-39.337z" fill="#38d39a"/><path d="m220.277 223.13c10.863-10.863 10.863-28.474 0-39.337l-17.294-17.294c-10.862-10.862-28.474-10.862-39.337 0-10.863 10.863-10.863 28.474 0 39.337l17.294 17.294c10.863 10.862 28.474 10.862 39.337 0z" fill="#00c072"/><path d="m180.94 262.466c10.863-10.863 10.863-28.474 0-39.337l-17.294-17.294c-10.863-10.862-28.474-10.862-39.337 0-10.863 10.863-10.863 28.474 0 39.337l17.294 17.294c10.863 10.863 28.475 10.863 39.337 0z" fill="#38d39a"/><path d="m84.972 245.172c-11.598 11.598-12.658 31.987 5.993 50.638s39.04 17.591 50.638 5.993c10.862-10.862 10.862-28.474 0-39.337l-17.294-17.294c-10.862-10.862-28.474-10.862-39.337 0z" fill="#00c072"/></g><g><path d="m254.995 0c-15.8 0-28.609 12.809-28.609 28.609v27.228c0 15.8 12.809 28.609 28.609 28.609 15.8 0 28.609-12.809 28.609-28.609v-27.228c0-15.8-12.809-28.609-28.609-28.609z" fill="#5972a4"/><path d="m242.252 2.995c-9.403 4.687-15.866 14.393-15.866 25.614v27.228c0 15.8 12.809 28.609 28.609 28.609 8.127 0 15.457-3.395 20.665-8.836-24.386-13.491-38.495-50.012-33.408-72.615z" fill="#3b5a9a"/><path d="m58.934 82.044c-11.173 11.173-11.173 29.287 0 40.459l19.253 19.253c11.172 11.173 29.287 11.173 40.459 0 11.172-11.173 11.172-29.287 0-40.459l-19.253-19.253c-11.172-11.173-29.287-11.173-40.459 0z" fill="#ff6e80"/><path d="m112.063 146.672c-24.039-12.88-36.655-49.829-32.458-72.997-7.468-.115-14.973 2.67-20.671 8.369-11.173 11.173-11.173 29.287 0 40.459l19.253 19.253c9.174 9.175 23.027 10.809 33.876 4.916z" fill="#f8475e"/><path d="m453.066 82.044c11.173 11.173 11.173 29.287 0 40.459l-19.253 19.253c-11.172 11.173-29.287 11.173-40.459 0-11.172-11.173-11.172-29.287 0-40.459l19.253-19.253c11.172-11.173 29.287-11.173 40.459 0z" fill="#a3e6ff"/><path d="m411.797 82.854-18.443 18.443c-11.173 11.173-11.173 29.287 0 40.459 11.172 11.173 29.287 11.173 40.459 0l4.922-4.922c-15.697-12.008-25.324-34.596-26.938-53.98z" fill="#59d5ff"/></g></g></svg>